# xmcd CD database file
#
# Track frame offsets:
#	150
#	2121
#	13945
#	24543
#	35080
#	41565
#	54268
#	66922
#	82494
#	94036
#	105783
#	116240
#	126782
#	139201
#
# Disc length: 2021 seconds
#
# Revision: 0
# Processed by: cddbd v1.4PL0 Copyright (c) Steve Scherf et al.
# Submitted via: Feurio! 1.65 - http://www.feurio.com
#
DISCID=bf07e30e
DTITLE=Charlie Pride - In Person
DYEAR=1900
DGENRE=country
TTITLE0=Intro. By Bo Powell
TTITLE1=The Last Thing On My Mind
TTITLE2=Just Between You And Me
TTITLE3=I Know One
TTITLE4=Dialogue
TTITLE5=Lovesick Blues
TTITLE6=The Image Of Me
TTITLE7=Kaw-liga
TTITLE8=Shutters And Boards
TTITLE9=Six Days On The Road
TTITLE10=Streets Of Baltimore
TTITLE11=Got Leavin' On Her Mind
TTITLE12=Crystal Chandeliers
TTITLE13=Cotton Fields
EXTD=Koch  KOC-CD-7984
EXTT0=
EXTT1=
EXTT2=
EXTT3=
EXTT4=
EXTT5=
EXTT6=
EXTT7=
EXTT8=
EXTT9=
EXTT10=
EXTT11=
EXTT12=
EXTT13=
PLAYORDER=
